<svg
  xmlns="http://www.w3.org/2000/svg"
  viewBox="0 0 32 32"
  width="1em"
  height="1em"
  fill="currentColor"
>
  <title>Jira</title>
  <path d="M29.762 1.004h-14.443c0 3.599 2.918 6.517 6.517 6.517h2.66v2.571c.003 3.591 2.91 6.502 6.498 6.512h.001V2.261c0-.685-.55-1.241-1.232-1.251h-.002zM22.616 8.198H8.173c.001 3.599 2.918 6.516 6.517 6.516h2.66v2.572c.003 3.598 2.919 6.513 6.517 6.516V9.449c0-.691-.56-1.251-1.251-1.251zM15.464 15.391H1.004c.002 3.6 2.921 6.517 6.521 6.517h.018h2.661v2.57c0 3.598 2.916 6.515 6.514 6.517h0V16.647c0-.694-.562-1.256-1.256-1.256z"/>
</svg>